<?xml version="1.0" encoding="UTF-8" standalone="no"?>
<svg
   xmlns:dc="http://purl.org/dc/elements/1.1/"
   xmlns:cc="http://creativecommons.org/ns#"
   xmlns:rdf="http://www.w3.org/1999/02/22-rdf-syntax-ns#"
   xmlns:svg="http://www.w3.org/2000/svg"
   xmlns="http://www.w3.org/2000/svg"
   xmlns:sodipodi="http://sodipodi.sourceforge.net/DTD/sodipodi-0.dtd"
   xmlns:inkscape="http://www.inkscape.org/namespaces/inkscape"
   sodipodi:docname="logo design.svg"
   inkscape:version="1.0 (4035a4fb49, 2020-05-01)"
   id="svg8"
   version="1.1"
   viewBox="0 0 210 297"
   height="297mm"
   width="210mm">
  <defs
     id="defs2">
    <filter
       height="1.0001176"
       y="-5.8799994e-05"
       width="1.0001176"
       x="-5.8799994e-05"
       id="filter943"
       style="color-interpolation-filters:sRGB"
       inkscape:collect="always">
      <feGaussianBlur
         id="feGaussianBlur945"
         stdDeviation="0.0011024999"
         inkscape:collect="always" />
    </filter>
  </defs>
  <sodipodi:namedview
     inkscape:window-maximized="1"
     inkscape:window-y="-8"
     inkscape:window-x="-8"
     inkscape:window-height="1027"
     inkscape:window-width="1920"
     showgrid="false"
     inkscape:document-rotation="0"
     inkscape:current-layer="layer1"
     inkscape:document-units="mm"
     inkscape:cy="422.27548"
     inkscape:cx="475.96413"
     inkscape:zoom="1.4"
     inkscape:pageshadow="2"
     inkscape:pageopacity="0.0"
     borderopacity="1.0"
     bordercolor="#666666"
     pagecolor="#ffffff"
     id="base" />
  <metadata
     id="metadata5">
    <rdf:RDF>
      <cc:Work
         rdf:about="">
        <dc:format>image/svg+xml</dc:format>
        <dc:type
           rdf:resource="http://purl.org/dc/dcmitype/StillImage" />
        <dc:title></dc:title>
      </cc:Work>
    </rdf:RDF>
  </metadata>
  <g
     id="layer1"
     inkscape:groupmode="layer"
     inkscape:label="Layer 1">
    <circle
       r="60.762508"
       cy="110.86781"
       cx="106.74786"
       id="path912"
       style="fill:#000000;fill-opacity:1;fill-rule:nonzero;stroke:#ffffff;stroke-width:4.77497;stroke-miterlimit:4;stroke-dasharray:none;stroke-opacity:1;opacity:0.99700002" />
    <circle
       inkscape:export-ydpi="96"
       inkscape:export-xdpi="96"
       r="22.5"
       style="fill:#ff0000;fill-opacity:1;stroke-width:0.198436;filter:url(#filter943)"
       id="circle875"
       cy="110.96407"
       cx="106.77444" />
    <path
       inkscape:export-ydpi="96"
       inkscape:export-xdpi="96"
       d="M 106.86442,53.269321 89.310457,83.609072 a 14.999999,14.999999 0 0 1 7.569564,13.030213 14.999999,14.999999 0 0 1 -15.000117,15.000115 14.999999,14.999999 0 0 1 -7.593335,-2.06447 l -17.486271,30.22244 34.921899,0.0253 a 14.999999,14.999999 0 0 1 14.999603,-14.91536 14.999999,14.999999 0 0 1 14.9996,14.93655 l 35.07899,0.0253 -17.4904,-30.33251 a 15,15 0 0 1 -7.46621,1.99006 15,15 0 0 1 -15.00012,-15.000122 15,15 0 0 1 7.48016,-12.979051 z"
       inkscape:transform-center-y="-14.055318"
       inkscape:transform-center-x="-0.16400679"
       style="fill:#ffffff;stroke-width:0.342765;fill-opacity:1"
       id="path845" />
  </g>
</svg>
